<?xml version="1.0" standalone="no"?><!DOCTYPE svg PUBLIC "-//W3C//DTD SVG 1.1//EN" "http://www.w3.org/Graphics/SVG/1.1/DTD/svg11.dtd"><svg t="1627870985598" class="icon" viewBox="0 0 1152 1024" version="1.1" xmlns="http://www.w3.org/2000/svg" p-id="1994" xmlns:xlink="http://www.w3.org/1999/xlink" width="18" height="16"><defs><style type="text/css"></style></defs><path d="M735.947949 125.874054 735.947949 955.720493 987.59408 1024 1011.67207 1021.087981 1011.67207 52.49568 972.014208 52.49568 735.947949 125.874054 735.947949 125.874054ZM426.729933 744.117466 426.729933 1023.524102 498.488 1023.524102 499.791046 686.500256 426.729933 744.117466 426.729933 744.117466ZM426.729933 0 426.729933 280.222458 501.139411 339.48263 502.272493 48.92647 995.163066 48.92647 1038.582758 48.994458 1038.582758 1023.524102 1095.236851 1023.524102 1095.236851 0 426.729933 0 426.729933 0ZM303.099379 783.23145C298.850323 783.23145 294.555942 782.24567 290.692134 780.398746 280.845651 775.594477 274.534387 765.521382 274.534387 754.666458L274.534387 632.418266 28.564992 632.418266C12.815155 632.418266 0 619.60311 0 603.841946L0 419.682163C0 403.920992 12.815155 391.117171 28.564992 391.117171L274.523053 391.117171 274.523053 268.880307C274.523053 257.991392 280.868314 247.884301 290.692134 243.136691 300.289331 238.502387 312.51529 239.850752 320.90009 246.524602L627.398714 490.613082C634.253856 496.085869 638.174323 504.255386 638.162989 513.036768 638.140326 521.81815 634.174541 529.976339 627.274074 535.426464L320.798112 777.112806C315.789894 781.055936 309.501286 783.23145 303.099379 783.23145L303.099379 783.23145ZM303.099379 754.666458 303.099379 768.965952 303.099379 754.666458 303.099379 754.666458Z" p-id="1995" fill="#ffffff"></path></svg>