<?xml version="1.0" standalone="no"?><!DOCTYPE svg PUBLIC "-//W3C//DTD SVG 1.1//EN" "http://www.w3.org/Graphics/SVG/1.1/DTD/svg11.dtd"><svg t="1630899294816" class="icon" viewBox="0 0 1024 1024" version="1.1" xmlns="http://www.w3.org/2000/svg" p-id="7324" width="32" height="32" xmlns:xlink="http://www.w3.org/1999/xlink"><defs><style type="text/css"></style></defs><path d="M779.8 240.9l225.9 225.9c25 25 25 65.5 0 90.5L779.8 783.1c-1.6 1.6-4.1 1.6-5.7 0l-62.2-62.2c-1.6-1.6-1.6-4.1 0-5.7l148.4-148.4c2.5-2.5 0.7-6.8-2.8-6.8H4c-2.2 0-4-1.8-4-4v-88c0-2.2 1.8-4 4-4h853.5c3.6 0 5.3-4.3 2.8-6.8L711.9 308.8c-1.6-1.6-1.6-4.1 0-5.7l62.2-62.2c1.6-1.6 4.1-1.6 5.7 0z" p-id="7325"></path></svg>