<?xml version="1.0" standalone="no"?><!DOCTYPE svg PUBLIC "-//W3C//DTD SVG 1.1//EN" "http://www.w3.org/Graphics/SVG/1.1/DTD/svg11.dtd"><svg t="1627373311247" class="icon" viewBox="0 0 1043 1024" version="1.1" xmlns="http://www.w3.org/2000/svg" p-id="4541" width="16.296875" height="16" xmlns:xlink="http://www.w3.org/1999/xlink"><defs><style type="text/css">@font-face { font-family: feedback-iconfont; src: url("//at.alicdn.com/t/font_1031158_1uhr8ri0pk5.eot?#iefix") format("embedded-opentype"), url("//at.alicdn.com/t/font_1031158_1uhr8ri0pk5.woff2") format("woff2"), url("//at.alicdn.com/t/font_1031158_1uhr8ri0pk5.woff") format("woff"), url("//at.alicdn.com/t/font_1031158_1uhr8ri0pk5.ttf") format("truetype"), url("//at.alicdn.com/t/font_1031158_1uhr8ri0pk5.svg#iconfont") format("svg"); }
</style></defs><path d="M675.105007 655.142224m-314.413824 0a314.413824 314.413824 0 1 0 628.827647 0 314.413824 314.413824 0 1 0-628.827647 0Z" fill="#5CF1E7" p-id="4542"></path><path d="M752.687638 685.540097a45.36996 45.36996 0 0 0-33.57377 13.610989 48.092158 48.092158 0 0 0 0 67.60124l243.182986 243.182986a47.638458 47.638458 0 1 0 67.147541-67.60124l-242.729286-243.182986a48.999557 48.999557 0 0 0-34.027471-13.610989z" fill="#1F56F5" p-id="4543"></path><path d="M453.699601 907.399202a453.699601 453.699601 0 1 1 453.699601-453.699601c-2.268498 45.36996-3.629597 59.888347-4.990695 67.147541l-8.166593 48.545858a45.36996 45.36996 0 0 1-90.73992-14.518388l8.166593-50.814355C816.659282 490.449269 816.659282 453.699601 816.659282 453.699601a362.959681 362.959681 0 1 0-122.498892 272.219761s9.527692-9.527692 21.323881-24.046079a45.36996 45.36996 0 0 1 63.971644-5.444395 45.36996 45.36996 0 0 1 5.898095 63.517944 408.329641 408.329641 0 0 1-29.036775 32.212672A453.699601 453.699601 0 0 1 453.699601 907.399202z" fill="#1F56F5" p-id="4544"></path><path d="M251.803279 651.058928a45.36996 45.36996 0 0 1-39.471866-23.592379 306.70093 306.70093 0 0 1 118.415596-418.311033 45.36996 45.36996 0 1 1 45.36996 79.39743 216.868409 216.868409 0 0 0-83.027027 294.904741A45.36996 45.36996 0 0 1 272.219761 645.160833a45.36996 45.36996 0 0 1-20.416482 5.898095z" fill="#A8B9E9" p-id="4545"></path></svg>