<?xml version="1.0" standalone="no"?><!DOCTYPE svg PUBLIC "-//W3C//DTD SVG 1.1//EN" "http://www.w3.org/Graphics/SVG/1.1/DTD/svg11.dtd"><svg t="1627372856731" class="icon" viewBox="0 0 1024 1024" version="1.1" xmlns="http://www.w3.org/2000/svg" p-id="2161" width="48" height="48" xmlns:xlink="http://www.w3.org/1999/xlink"><defs><style type="text/css">@font-face { font-family: feedback-iconfont; src: url("//at.alicdn.com/t/font_1031158_1uhr8ri0pk5.eot?#iefix") format("embedded-opentype"), url("//at.alicdn.com/t/font_1031158_1uhr8ri0pk5.woff2") format("woff2"), url("//at.alicdn.com/t/font_1031158_1uhr8ri0pk5.woff") format("woff"), url("//at.alicdn.com/t/font_1031158_1uhr8ri0pk5.ttf") format("truetype"), url("//at.alicdn.com/t/font_1031158_1uhr8ri0pk5.svg#iconfont") format("svg"); }
</style></defs><path d="M512 512m-512 0a512 512 0 1 0 1024 0 512 512 0 1 0-1024 0Z" fill="#6AE5E1" p-id="2162"></path><path d="M944.8 630.4l15.2-12.8c26.4-23.2 27.2-60.8 1.6-84.8L880 459.2c-26.4-24-76-43.2-111.2-43.2h-760C3.2 447.2 0 479.2 0 512c0 56 8.8 109.6 25.6 160H832c35.2 0 85.6-18.4 112.8-41.6z" fill="#EAEAEA" p-id="2163"></path><path d="M840 664H23.2c4 13.6 8.8 27.2 14.4 40H840c8.8 0 16-7.2 16-16v-8c0-8.8-7.2-16-16-16z" fill="#415E6D" p-id="2164"></path><path d="M312 712c0 8.8-7.2 16-16 16H152c-8.8 0-16-7.2-16-16v-32c0-8.8 7.2-16 16-16h144c8.8 0 16 7.2 16 16v32zM680 712c0 8.8-7.2 16-16 16H520c-8.8 0-16-7.2-16-16v-32c0-8.8 7.2-16 16-16h144c8.8 0 16 7.2 16 16v32z" fill="#EAEAEA" p-id="2165"></path><path d="M136 672h168v24H136zM504 672h168v24H504z" fill="#D4D6D6" p-id="2166"></path><path d="M296 736H152c-13.6 0-24-10.4-24-24v-32c0-13.6 10.4-24 24-24h144c13.6 0 24 10.4 24 24v32c0 13.6-10.4 24-24 24z m-144-64c-4.8 0-8 3.2-8 8v32c0 4.8 3.2 8 8 8h144c4.8 0 8-3.2 8-8v-32c0-4.8-3.2-8-8-8H152zM664 736H520c-13.6 0-24-10.4-24-24v-32c0-13.6 10.4-24 24-24h144c13.6 0 24 10.4 24 24v32c0 13.6-10.4 24-24 24z m-144-64c-4.8 0-8 3.2-8 8v32c0 4.8 3.2 8 8 8h144c4.8 0 8-3.2 8-8v-32c0-4.8-3.2-8-8-8H520z" fill="#0C508E" p-id="2167"></path><path d="M738.4 714.4m-34.4 0a34.4 34.4 0 1 0 68.8 0 34.4 34.4 0 1 0-68.8 0Z" fill="#415E6D" p-id="2168"></path><path d="M813.6 714.4m-34.4 0a34.4 34.4 0 1 0 68.8 0 34.4 34.4 0 1 0-68.8 0Z" fill="#415E6D" p-id="2169"></path><path d="M370.4 714.4m-34.4 0a34.4 34.4 0 1 0 68.8 0 34.4 34.4 0 1 0-68.8 0Z" fill="#415E6D" p-id="2170"></path><path d="M445.6 714.4m-34.4 0a34.4 34.4 0 1 0 68.8 0 34.4 34.4 0 1 0-68.8 0Z" fill="#415E6D" p-id="2171"></path><path d="M77.6 714.4m-34.4 0a34.4 34.4 0 1 0 68.8 0 34.4 34.4 0 1 0-68.8 0Z" fill="#415E6D" p-id="2172"></path><path d="M864.8 448H816c-16 0-24 16-8 40s32 64 64 64h102.4" fill="#3AD0F9" p-id="2173"></path><path d="M456 592c0 17.6-14.4 32-32 32h-32c-17.6 0-32-14.4-32-32V504c0-17.6 14.4-32 32-32h32c17.6 0 32 14.4 32 32v88z" fill="#EAEAEA" p-id="2174"></path><path d="M8 600h976v-24H4c0.8 8 2.4 16 4 24z" fill="#F4B10B" p-id="2175"></path><path d="M14.4 632c3.2 13.6 7.2 27.2 11.2 40H832c35.2 0 85.6-18.4 112.8-41.6l15.2-12.8c19.2-16.8 24.8-41.6 16.8-63.2-3.2 8-8.8 16-16.8 23.2l-15.2 12.8c-26.4 23.2-77.6 41.6-112.8 41.6H14.4z" fill="#D4D6D6" p-id="2176"></path><path d="M608 568c0 8.8-7.2 16-16 16h-40c-8.8 0-16-7.2-16-16v-56c0-8.8 7.2-16 16-16h40c8.8 0 16 7.2 16 16v56z" fill="#3AD0F9" p-id="2177"></path><path d="M592 592h-40c-13.6 0-24-10.4-24-24v-56c0-13.6 10.4-24 24-24h40c13.6 0 24 10.4 24 24v56c0 13.6-10.4 24-24 24z m-40-88c-4.8 0-8 3.2-8 8v56c0 4.8 3.2 8 8 8h40c4.8 0 8-3.2 8-8v-56c0-4.8-3.2-8-8-8h-40z" fill="#0C508E" p-id="2178"></path><path d="M608 544h-64c-4.8 0-8-3.2-8-8s3.2-8 8-8h64c4.8 0 8 3.2 8 8s-3.2 8-8 8z" fill="#0C508E" p-id="2179"></path><path d="M560 568c-3.2 0-6.4-2.4-7.2-5.6-1.6-4 0.8-8.8 4.8-10.4l24-8c4-1.6 8.8 0.8 10.4 4.8 1.6 4-0.8 8.8-4.8 10.4l-24 8c-1.6 0.8-2.4 0.8-3.2 0.8z" fill="#FFFFFF" p-id="2180"></path><path d="M752 568c0 8.8-7.2 16-16 16h-40c-8.8 0-16-7.2-16-16v-56c0-8.8 7.2-16 16-16h40c8.8 0 16 7.2 16 16v56z" fill="#3AD0F9" p-id="2181"></path><path d="M736 592h-40c-13.6 0-24-10.4-24-24v-56c0-13.6 10.4-24 24-24h40c13.6 0 24 10.4 24 24v56c0 13.6-10.4 24-24 24z m-40-88c-4.8 0-8 3.2-8 8v56c0 4.8 3.2 8 8 8h40c4.8 0 8-3.2 8-8v-56c0-4.8-3.2-8-8-8h-40z" fill="#0C508E" p-id="2182"></path><path d="M752 544h-64c-4.8 0-8-3.2-8-8s3.2-8 8-8h64c4.8 0 8 3.2 8 8s-3.2 8-8 8z" fill="#0C508E" p-id="2183"></path><path d="M704 568c-3.2 0-6.4-2.4-7.2-5.6-1.6-4 0.8-8.8 4.8-10.4l24-8c4-1.6 8.8 0.8 10.4 4.8 1.6 4-0.8 8.8-4.8 10.4l-24 8c-1.6 0.8-2.4 0.8-3.2 0.8z" fill="#FFFFFF" p-id="2184"></path><path d="M128 568c0 8.8-7.2 16-16 16H72c-8.8 0-16-7.2-16-16v-56c0-8.8 7.2-16 16-16h40c8.8 0 16 7.2 16 16v56z" fill="#3AD0F9" p-id="2185"></path><path d="M112 592H72c-13.6 0-24-10.4-24-24v-56c0-13.6 10.4-24 24-24h40c13.6 0 24 10.4 24 24v56c0 13.6-10.4 24-24 24zM72 504c-4.8 0-8 3.2-8 8v56c0 4.8 3.2 8 8 8h40c4.8 0 8-3.2 8-8v-56c0-4.8-3.2-8-8-8H72z" fill="#0C508E" p-id="2186"></path><path d="M128 544H64c-4.8 0-8-3.2-8-8s3.2-8 8-8h64c4.8 0 8 3.2 8 8s-3.2 8-8 8z" fill="#0C508E" p-id="2187"></path><path d="M80 568c-3.2 0-6.4-2.4-7.2-5.6-1.6-4 0.8-8.8 4.8-10.4l24-8c4-1.6 8.8 0.8 10.4 4.8 1.6 4-0.8 8.8-4.8 10.4l-24 8c-1.6 0.8-2.4 0.8-3.2 0.8z" fill="#FFFFFF" p-id="2188"></path><path d="M280 568c0 8.8-7.2 16-16 16h-40c-8.8 0-16-7.2-16-16v-56c0-8.8 7.2-16 16-16h40c8.8 0 16 7.2 16 16v56z" fill="#3AD0F9" p-id="2189"></path><path d="M264 592h-40c-13.6 0-24-10.4-24-24v-56c0-13.6 10.4-24 24-24h40c13.6 0 24 10.4 24 24v56c0 13.6-10.4 24-24 24z m-40-88c-4.8 0-8 3.2-8 8v56c0 4.8 3.2 8 8 8h40c4.8 0 8-3.2 8-8v-56c0-4.8-3.2-8-8-8h-40z" fill="#0C508E" p-id="2190"></path><path d="M280 544h-64c-4.8 0-8-3.2-8-8s3.2-8 8-8h64c4.8 0 8 3.2 8 8s-3.2 8-8 8z" fill="#0C508E" p-id="2191"></path><path d="M232 568c-3.2 0-6.4-2.4-7.2-5.6-1.6-4 0.8-8.8 4.8-10.4l24-8c4-1.6 8.8 0.8 10.4 4.8 1.6 4-0.8 8.8-4.8 10.4l-24 8c-1.6 0.8-2.4 0.8-3.2 0.8z" fill="#FFFFFF" p-id="2192"></path><path d="M974.4 560H872c-30.4 0-47.2-29.6-61.6-52.8-3.2-5.6-6.4-10.4-8.8-15.2-13.6-20.8-10.4-34.4-7.2-40 4-8 12-12 21.6-12h48.8c1.6 0 3.2 0.8 4.8 1.6 6.4 4 11.2 8 15.2 12l80.8 73.6c6.4 6.4 12 13.6 16 21.6 0.8 2.4 0.8 5.6-0.8 8-0.8 1.6-3.2 3.2-6.4 3.2z m-157.6-104c-2.4 0-6.4 0.8-8 4-2.4 4-1.6 12 6.4 24 3.2 4.8 6.4 10.4 9.6 16 12 20.8 26.4 44.8 47.2 44.8h88l-4.8-4.8-80.8-73.6c-3.2-3.2-7.2-5.6-11.2-8.8h-46.4z" fill="#0C508E" p-id="2193"></path><path d="M848 504c-2.4 0-4-0.8-5.6-2.4-3.2-3.2-3.2-8 0-11.2l16-16c3.2-3.2 8-3.2 11.2 0 3.2 3.2 3.2 8 0 11.2l-16 16c-1.6 1.6-3.2 2.4-5.6 2.4zM872 528c-2.4 0-4-0.8-5.6-2.4-3.2-3.2-3.2-8 0-11.2l16-16c3.2-3.2 8-3.2 11.2 0 3.2 3.2 3.2 8 0 11.2l-16 16c-1.6 1.6-3.2 2.4-5.6 2.4z" fill="#FFFFFF" p-id="2194"></path><path d="M740 760c-24 0-44-20-44-44s20-44 44-44 44 20 44 44-20 44-44 44z m0-71.2c-15.2 0-27.2 12-27.2 27.2s12 27.2 27.2 27.2 27.2-12 27.2-27.2-12-27.2-27.2-27.2z" fill="#0C508E" p-id="2195"></path><path d="M812 760c-24 0-44-20-44-44s20-44 44-44 44 20 44 44-20 44-44 44z m0-71.2c-15.2 0-27.2 12-27.2 27.2s12 27.2 27.2 27.2 27.2-12 27.2-27.2-12-27.2-27.2-27.2zM372 760c-24 0-44-20-44-44s20-44 44-44 44 20 44 44-20 44-44 44z m0-71.2c-15.2 0-27.2 12-27.2 27.2s12 27.2 27.2 27.2 27.2-12 27.2-27.2-12-27.2-27.2-27.2z" fill="#0C508E" p-id="2196"></path><path d="M444 760c-24 0-44-20-44-44s20-44 44-44 44 20 44 44-20 44-44 44z m0-71.2c-15.2 0-27.2 12-27.2 27.2s12 27.2 27.2 27.2 27.2-12 27.2-27.2-12-27.2-27.2-27.2zM76 760c-24 0-44-20-44-44S52 672 76 672s44 20 44 44S100 760 76 760z m0-71.2c-15.2 0-27.2 12-27.2 27.2s12 27.2 27.2 27.2 27.2-12 27.2-27.2-12-27.2-27.2-27.2zM424 632h-32c-22.4 0-40-17.6-40-40V504c0-22.4 17.6-40 40-40h32c22.4 0 40 17.6 40 40v88c0 22.4-17.6 40-40 40z m-32-152c-13.6 0-24 10.4-24 24v88c0 13.6 10.4 24 24 24h32c13.6 0 24-10.4 24-24V504c0-13.6-10.4-24-24-24h-32z" fill="#0C508E" p-id="2197"></path><path d="M744 448H656c-4.8 0-8-3.2-8-8s3.2-8 8-8h88c4.8 0 8 3.2 8 8s-3.2 8-8 8zM560 448H48c-4.8 0-8-3.2-8-8s3.2-8 8-8h512c4.8 0 8 3.2 8 8s-3.2 8-8 8zM424 504h-24c-4.8 0-8-3.2-8-8s3.2-8 8-8h24c4.8 0 8 3.2 8 8s-3.2 8-8 8z" fill="#FFFFFF" p-id="2198"></path><path d="M992 760H24c-4.8 0-8-3.2-8-8s3.2-8 8-8h968c4.8 0 8 3.2 8 8s-3.2 8-8 8zM953.6 636.8l15.2-12.8c14.4-12.8 23.2-29.6 23.2-48s-7.2-36-21.6-48.8l-81.6-73.6c-27.2-24.8-80-44.8-117.6-44.8H10.4c-0.8 5.6-1.6 10.4-3.2 16h763.2c32.8 0 81.6 18.4 106.4 40.8l81.6 73.6c11.2 9.6 16.8 23.2 16.8 36.8 0 13.6-6.4 26.4-17.6 36l-15.2 12.8c-25.6 21.6-74.4 40-108 40H23.2c1.6 5.6 3.2 10.4 5.6 16h807.2c36.8-0.8 89.6-20 117.6-44zM28.8 681.6c4.8 12.8 9.6 25.6 15.2 37.6 0-1.6 0.8-3.2 0.8-5.6 0-12.8-6.4-24-16-32z" fill="#0C508E" p-id="2199"></path><path d="M276 196m-68 0a68 68 0 1 0 136 0 68 68 0 1 0-136 0Z" fill="#FBD000" p-id="2200"></path><path d="M768 164c0-8.8-8-12-18.4-12h-15.2c-10.4 0-14.4-8-14.4-16s-12-16-21.6-16H592.8c-10.4 0-16.8 8-16.8 16s-9.6 16-19.2 16h-18.4c-10.4 0-18.4 7.2-18.4 16s8 16 18.4 16h52c10.4 0 18.4 1.6 18.4 8.8S600 208 589.6 208h-8.8c-10.4 0-20.8 7.2-20.8 16s11.2 16 20.8 16h50.4c10.4 0 16.8-8 16.8-16s9.6-16 19.2-16h6.4c10.4 0 14.4-8 14.4-16s12-8 22.4-8h39.2c10.4 0 18.4-11.2 18.4-20zM416 392H80c-4.8 0-8-3.2-8-8s3.2-8 8-8h336c4.8 0 8 3.2 8 8s-3.2 8-8 8zM632 392H504c-4.8 0-8-3.2-8-8s3.2-8 8-8h128c4.8 0 8 3.2 8 8s-3.2 8-8 8zM762.4 288.8c0-3.2-3.2-6.4-8-7.2l-15.2-1.6c-4-0.8-8.8-4.8-8.8-8.8L728 256c-0.8-4-4-8-7.2-8s-6.4 3.2-7.2 8l-1.6 14.4c-0.8 4-4.8 8.8-8.8 8.8l-15.2 3.2c-4 0.8-8 4-8 7.2s3.2 6.4 8 7.2l15.2 2.4c4 0.8 8.8 4.8 8.8 8.8l2.4 15.2c0.8 4 4 8 7.2 8s6.4-3.2 7.2-8l2.4-16.8c0.8-4 4.8-8 8.8-8.8l14.4-0.8c4-1.6 8-4.8 8-8zM434.4 863.2c0-3.2-3.2-6.4-8-7.2l-15.2-2.4c-4-0.8-8.8-4.8-8.8-8.8l-2.4-15.2c-0.8-4-4-8-7.2-8s-6.4 3.2-7.2 8l-2.4 15.2c-0.8 4-4.8 8.8-8.8 8.8l-14.4 2.4c-4 0.8-8 4-8 7.2s3.2 6.4 8 7.2l15.2 2.4c4 0.8 8.8 4.8 8.8 8.8l2.4 15.2c0.8 4 4 8 7.2 8s6.4-3.2 7.2-8l2.4-16.8c0.8-4 4.8-8 8.8-8.8l14.4-0.8c4-1.6 8-4 8-7.2zM448 152c-17.6 0-32-14.4-32-32s14.4-32 32-32 32 14.4 32 32-14.4 32-32 32z m0-48.8c-9.6 0-16.8 8-16.8 16.8 0 9.6 8 16.8 16.8 16.8 9.6 0 16.8-8 16.8-16.8 0-9.6-7.2-16.8-16.8-16.8zM848 352c-17.6 0-32-14.4-32-32s14.4-32 32-32 32 14.4 32 32-14.4 32-32 32z m0-48.8c-9.6 0-16.8 8-16.8 16.8 0 9.6 8 16.8 16.8 16.8 9.6 0 16.8-8 16.8-16.8 0-9.6-7.2-16.8-16.8-16.8zM632 904c-17.6 0-32-14.4-32-32s14.4-32 32-32 32 14.4 32 32-14.4 32-32 32z m0-48.8c-9.6 0-16.8 8-16.8 16.8 0 9.6 8 16.8 16.8 16.8 9.6 0 16.8-8 16.8-16.8 0-9.6-7.2-16.8-16.8-16.8zM440 248c0-8.8-10.4-16-24-16H304.8c-13.6 0-24 7.2-24 16s-8.8 16-20 16-20 7.2-20 16 10.4 16 24 16h80c13.6 0 24-7.2 24-16s10.4-16 24-16h24c12.8 0 23.2-7.2 23.2-16z" fill="#FFFFFF" p-id="2201"></path></svg>