<?xml version="1.0" standalone="no"?><!DOCTYPE svg PUBLIC "-//W3C//DTD SVG 1.1//EN" "http://www.w3.org/Graphics/SVG/1.1/DTD/svg11.dtd"><svg t="1630900714746" class="icon" viewBox="0 0 1024 1024" version="1.1" xmlns="http://www.w3.org/2000/svg" p-id="8952" xmlns:xlink="http://www.w3.org/1999/xlink" width="64" height="64"><defs><style type="text/css"></style></defs><path d="M710.232 547.25c3.043 8.145-1.164 17.094-9.308 20.048-8.145 2.953-17.095-1.164-20.048-9.309l-12.798-35.083-1.79-4.922c-2.685-7.339 0.537-15.394 7.07-19.063a10.26 10.26 0 0 1 2.237-1.074c8.145-2.954 17.184 1.253 20.137 9.397l14.5 40.006zM680.877 466.434c2.953 8.055-1.253 17.094-9.397 20.047-1.79 0.626-3.579 0.984-5.369 0.984-6.354 0-12.351-4.027-14.678-10.381l-14.589-40.006c-2.685-7.338 0.537-15.394 7.16-18.973a10.26 10.26 0 0 1 2.237-1.074c8.055-2.953 17.095 1.253 20.048 9.308l14.588 40.095zM651.343 385.259c2.953 8.144-1.253 17.184-9.397 20.137-1.79 0.626-3.58 0.985-5.369 0.985-6.354 0-12.352-4.028-14.678-10.382l-14.589-40.005c-2.685-7.339 0.537-15.394 7.16-18.974a10.26 10.26 0 0 1 2.237-1.074c8.055-2.953 17.095 1.164 20.048 9.308l14.588 40.005zM546.362 459.363l59.337 37.41-15.752-43.228c-2.953-8.145 1.253-17.094 9.397-20.047 8.145-2.954 17.094 1.164 20.048 9.308l31.413 86.366c2.327 6.354 0.358 13.424-4.833 17.631-1.432 1.073-2.953 1.879-4.475 2.506-4.475 1.61-9.576 1.163-13.782-1.521L567.93 510.02l15.931 43.764c2.954 8.145-1.253 17.094-9.308 20.048-8.145 2.953-17.184-1.253-20.137-9.308l-31.503-86.634c-2.954-8.144 1.253-17.184 9.308-20.137a15.792 15.792 0 0 1 7.876-0.626c0.269 0 0.537 0.089 0.895 0.089 0.358 0.089 0.716 0.179 0.984 0.269 1.522 0.446 3.044 0.983 4.386 1.878zM538.039 570.34c2.953 8.145-1.253 17.184-9.397 20.138-8.145 2.953-17.094-1.253-20.047-9.397l-0.806-2.148-30.608-84.038c-2.954-8.144 1.253-17.094 9.397-20.047 8.145-2.953 17.094 1.253 20.047 9.308l31.414 86.184zM492.037 603.365a17.122 17.122 0 0 1-5.28 3.222c-5.728 2.059-12.44 0.716-16.826-4.117l-6.265-6.802-32.309 11.813 0.179 7.07c0.269 8.592-6.533 15.842-15.214 16.021-6.534 0.179-12.172-3.67-14.767-9.308-0.806-1.79-1.253-3.849-1.343-5.996l-2.417-96.837c-0.179-6.533 3.669-12.53 9.755-14.946 6.086-2.327 12.977-0.895 17.363 3.938l68.018 73.835c0.716 0.716 1.342 1.611 1.79 2.417 3.939 6.265 2.954 14.589-2.684 19.69z m-51.371-32.667l-10.561-11.366 0.448 15.125 10.113-3.759zM389.294 622.07c3.311 5.459 3.132 12.619-1.074 17.899-1.879 2.416-4.296 4.116-6.981 5.012-4.922 1.79-10.65 1.074-15.035-2.417l-35.71-28.281a102.604 102.604 0 0 1-10.381 4.654l9.934 27.207c2.954 8.145-1.253 17.095-9.397 20.048-8.144 2.953-17.094-1.253-20.047-9.308l-30.608-83.949-0.895-2.416c-2.954-8.145 1.253-17.184 9.397-20.137 0.269-0.09 0.537-0.09 0.806-0.18 0.089-0.089 0.179-0.179 0.358-0.179 18.079-7.966 51.014-19.332 67.66-6.802 11.098 8.323 16.646 21.748 14.499 34.993-0.805 4.743-2.685 10.203-6.444 15.752l30.25 24.075c1.52 1.165 2.683 2.597 3.668 4.029z m-58.442-48.866c0.358-1.879-0.806-3.49-1.611-4.296-4.296-0.626-14.588 1.611-25.417 5.37l5.638 15.394c14.678-5.996 20.764-12.441 21.39-16.468zM254.421 578.574c1.253 7.339-2.864 14.856-10.113 17.452l-20.584 7.428 26.133 71.867c2.954 8.144-1.253 17.094-9.308 20.047-8.145 2.954-17.184-1.253-20.137-9.396l-26.133-71.777-20.584 7.518c-8.055 2.953-17.094-1.253-20.047-9.397-0.269-0.895-0.537-1.79-0.716-2.685-1.253-7.339 2.864-14.768 10.113-17.362l70.613-25.687c8.055-2.953 17.094 1.253 20.048 9.308 0.267 0.894 0.536 1.789 0.715 2.684z" fill="#97C5EA" p-id="8953"></path><path d="M269.994 572.936l30.608 83.949c2.954 8.055 11.903 12.261 20.047 9.308 8.145-2.953 12.351-11.903 9.397-20.048l-9.934-27.207a102.726 102.726 0 0 0 10.381-4.654l35.71 28.281c4.385 3.491 10.113 4.207 15.035 2.417 2.685-0.896 5.102-2.596 6.981-5.012 4.207-5.28 4.385-12.44 1.074-17.899l12.261-0.806c2.595 5.638 8.233 9.486 14.767 9.308 8.681-0.179 15.483-7.429 15.214-16.021l-0.179-7.07 32.309-11.813 6.265 6.802c4.385 4.833 11.098 6.176 16.826 4.117a17.122 17.122 0 0 0 5.28-3.222c5.638-5.102 6.623-13.425 2.685-19.689l13.066-4.744 0.806 2.148c2.953 8.145 11.903 12.351 20.047 9.397 8.145-2.954 12.351-11.993 9.397-20.138l16.378-5.816c2.953 8.055 11.992 12.261 20.137 9.308 8.055-2.954 12.262-11.903 9.308-20.048l-15.931-43.764 59.785 37.768c4.206 2.685 9.308 3.132 13.782 1.521 1.521-0.627 3.043-1.433 4.475-2.506 5.191-4.207 7.16-11.277 4.833-17.631l17.273-6.266 12.798 35.083c2.953 8.145 11.903 12.262 20.048 9.309 8.144-2.954 12.351-11.903 9.308-20.048l-14.499-40.005c-2.953-8.145-11.992-12.351-20.137-9.397-0.806 0.269-1.521 0.626-2.237 1.074l-7.249-11.456c1.79 0 3.579-0.358 5.369-0.984 8.145-2.953 12.351-11.993 9.397-20.047l-14.588-40.095c-2.953-8.055-11.993-12.261-20.048-9.308-0.806 0.269-1.521 0.626-2.237 1.074l-7.428-11.724c1.789 0 3.579-0.358 5.369-0.985 8.145-2.953 12.351-11.993 9.397-20.137l-14.588-40.005c-2.953-8.145-11.993-12.261-20.048-9.308-0.806 0.269-1.521 0.626-2.237 1.074l-7.876-13.156c1.79 0 3.58-0.358 5.37-0.984 8.055-2.954 12.261-11.993 9.308-20.047l-11.008-30.25 158.053-57.458c-3.938 6.892-6.444 14.588-7.16 22.464l-123.059 44.838c-8.056 2.954-12.262 11.903-9.309 20.048 2.954 8.144 11.903 12.351 20.048 9.397l118.405-43.138c10.65 20.853 32.936 32.846 55.757 30.608l1.074 3.043c-20.764 14.23-30.161 41.348-21.211 66.049 9.039 24.791 33.651 39.468 58.8 37.052l0.09 0.358c-20.764 14.319-30.161 41.348-21.211 66.139 9.039 24.701 33.651 39.379 58.71 36.962l1.164 3.043c-17.184 11.724-26.402 32.129-24.165 52.803L763.036 605.96c-8.145 3.043-12.351 11.993-9.397 20.138 2.953 8.144 11.903 12.261 20.048 9.308l114.288-41.616c5.996 7.606 13.693 13.335 22.374 17.004L219.248 862.371c6.981-13.604 8.413-29.803 2.864-45.196-8.86-24.344-32.756-38.932-57.815-36.873l-1.343-3.58c20.316-14.409 29.445-41.169 20.495-65.602-8.86-24.344-32.756-38.932-57.815-36.963l-0.269-0.895c19.242-13.693 28.371-38.395 21.659-61.754l5.907-1.879c0.179 0.895 0.447 1.79 0.716 2.685 2.954 8.145 11.993 12.351 20.047 9.397l20.584-7.518 26.133 71.777c2.954 8.144 11.993 12.351 20.137 9.396 8.055-2.953 12.261-11.903 9.308-20.047l-26.133-71.867 20.584-7.428c7.25-2.596 11.366-10.113 10.113-17.452l15.574-5.636z" fill="#97C5EA" p-id="8954"></path><path d="M269.099 570.52l0.895 2.416-15.573 5.639c-0.179-0.896-0.448-1.79-0.716-2.686-2.954-8.055-11.993-12.261-20.048-9.308l-70.613 25.687c-7.25 2.595-11.366 10.023-10.113 17.362l-5.907 1.879c-0.269-1.342-0.716-2.595-1.164-3.848-8.95-24.522-33.114-39.11-57.905-37.142l-1.253-3.401c20.316-14.409 29.445-41.079 20.495-65.602-5.907-16.199-18.437-28.013-33.472-33.651l507.093-184.544 11.009 30.161c2.327 6.354 8.323 10.382 14.767 10.382l7.876 13.156c-6.623 3.58-9.845 11.635-7.16 18.974l14.589 40.005c2.326 6.354 8.323 10.382 14.678 10.382l7.428 11.724c-6.623 3.58-9.845 11.635-7.16 18.973l14.589 40.006c2.327 6.354 8.323 10.381 14.678 10.381l7.249 11.456c-6.533 3.669-9.755 11.724-7.07 19.063l1.79 4.922-17.273 6.266-31.413-86.366c-2.954-8.144-11.903-12.261-20.048-9.308-8.145 2.953-12.351 11.903-9.397 20.047l15.752 43.228-59.337-37.41c-1.343-0.895-2.864-1.432-4.386-1.879a15.356 15.356 0 0 0-0.984-0.269c-0.357 0-0.626-0.089-0.895-0.089a15.792 15.792 0 0 0-7.876 0.626c-8.055 2.953-12.262 11.993-9.308 20.137l31.503 86.634-16.378 5.816-31.414-86.186c-2.953-8.055-11.903-12.261-20.047-9.308-8.144 2.954-12.351 11.903-9.397 20.047l30.608 84.038-13.066 4.744c-0.448-0.806-1.074-1.701-1.79-2.417l-68.018-73.835c-4.386-4.833-11.277-6.265-17.363-3.938-6.086 2.417-9.934 8.413-9.755 14.946l2.417 96.837c0.089 2.147 0.537 4.206 1.343 5.996l-12.261 0.806c-0.985-1.433-2.148-2.864-3.669-4.027l-30.25-24.075c3.759-5.549 5.639-11.009 6.444-15.752 2.148-13.245-3.401-26.67-14.499-34.993-16.646-12.53-49.582-1.164-67.66 6.802-0.179 0-0.269 0.09-0.358 0.179-0.269 0.09-0.537 0.09-0.806 0.18-8.148 2.953-12.355 11.992-9.401 20.137z" fill="#97C5EA" p-id="8955"></path><path d="M116.416 618.312c-4.743-12.978-19.063-19.69-32.13-15.215-0.447 0.179-0.716 0.269-0.984 0.447-3.848 1.343-8.055 1.253-11.724-0.447a15.478 15.478 0 0 1-8.323-8.95l-10.65-29.176c-2.953-8.145 1.253-17.095 9.397-20.048 0.269-0.179 0.984-0.357 1.432-0.447 12.351-4.564 19.063-19.063 14.319-32.219-4.833-13.246-19.779-19.869-32.667-15.036-3.849 1.432-8.323 1.342-12.082-0.358-3.759-1.701-6.981-4.833-8.413-8.771l-6.086-16.736c-2.953-8.145 1.253-17.184 9.397-20.137l765.652-278.695c8.055-2.954 17.094 1.253 20.048 9.397l6.085 16.826c1.433 3.938 1.253 8.323-0.626 12.082-1.79 3.849-5.102 6.802-9.129 8.055-0.09 0.089-0.895 0.268-1.074 0.358-13.156 4.833-19.868 19.332-15.125 32.398 4.743 13.156 19.332 19.958 32.398 15.125 0.357-0.089 1.074-0.447 1.432-0.537a15.624 15.624 0 0 1 11.725 0.358c3.938 1.7 6.892 5.012 8.323 8.95l10.739 29.266c1.433 4.027 1.164 8.413-0.716 12.261-1.879 3.848-5.102 6.712-9.308 8.055-0.179 0-0.895 0.269-1.074 0.269-12.888 4.743-19.689 19.242-14.946 32.398 4.833 13.067 19.332 19.869 32.488 15.125l1.074-0.448c3.848-1.611 8.323-1.432 12.171 0.269 3.849 1.701 6.802 4.922 8.234 8.95l9.665 26.581a15.376 15.376 0 0 1-0.626 12.261c-1.88 3.848-5.191 6.712-9.308 8.055-0.09 0-0.716 0.269-0.896 0.269-13.066 4.743-19.868 19.332-15.125 32.398 4.743 13.067 19.332 19.869 32.488 15.125 0.269-0.179 1.073-0.447 1.432-0.626 3.759-1.342 7.965-1.253 11.724 0.448a15.47 15.47 0 0 1 8.324 8.95l10.649 29.266c1.433 3.938 1.164 8.413-0.626 12.172-1.88 3.849-5.28 6.712-9.219 8.055-0.179 0.09-0.984 0.269-1.163 0.357-12.978 4.744-19.779 19.242-14.946 32.398 4.743 13.066 19.332 19.868 32.398 15.125 0.357-0.179 1.074-0.537 1.432-0.626 3.849-1.433 8.055-1.253 11.725 0.357 3.848 1.79 6.891 5.012 8.323 8.95l5.549 15.215c2.953 8.144-1.164 17.184-9.308 20.137L193.115 905.24c-8.144 2.954-17.094-1.253-20.047-9.397l-5.549-15.214c-2.953-8.145 1.253-17.095 9.308-20.048 0.358-0.179 1.074-0.358 1.432-0.447 12.351-4.564 19.152-19.063 14.409-32.22-4.743-13.066-19.332-19.868-32.398-15.125-8.145 2.954-17.81-0.984-20.764-9.039l-10.65-29.176c-2.953-8.145 1.253-17.184 9.397-20.138 0.358-0.089 1.074-0.357 1.432-0.447 12.351-4.475 19.152-19.063 14.319-32.13-4.743-13.155-19.242-19.958-32.398-15.125-8.145 2.954-17.81-0.984-20.764-9.129l-9.666-26.491c-2.954-8.144 1.253-17.184 9.397-20.137 0.358-0.09 1.074-0.357 1.432-0.447 12.352-4.474 19.154-19.063 14.411-32.218z m102.832 244.059l691.101-251.578c-8.681-3.669-16.378-9.397-22.374-17.004l-114.288 41.616c-8.145 2.953-17.095-1.164-20.048-9.308-2.953-8.145 1.253-17.095 9.397-20.138L876.25 564.79c-2.237-20.674 6.981-41.079 24.165-52.803l-1.164-3.043c-25.059 2.417-49.671-12.261-58.71-36.962-8.95-24.791 0.447-51.819 21.211-66.139l-0.09-0.358c-25.148 2.416-49.761-12.261-58.8-37.052-8.95-24.701 0.447-51.819 21.211-66.049l-1.074-3.043c-22.821 2.238-45.106-9.755-55.757-30.608l-118.405 43.138c-8.145 2.954-17.094-1.253-20.048-9.397-2.953-8.145 1.253-17.094 9.309-20.048l123.059-44.838c0.716-7.875 3.222-15.572 7.16-22.464l-158.053 57.458 11.008 30.25c2.953 8.055-1.253 17.094-9.308 20.047-1.79 0.626-3.58 0.984-5.37 0.984-6.443 0-12.439-4.027-14.767-10.382l-11.009-30.161L73.725 467.866c15.036 5.638 27.565 17.452 33.472 33.651 8.95 24.522-0.179 51.192-20.495 65.602l1.253 3.401c24.791-1.969 48.956 12.619 57.905 37.142 0.447 1.253 0.895 2.506 1.164 3.848 6.712 23.359-2.417 48.061-21.659 61.754l0.269 0.895c25.059-1.969 48.955 12.619 57.815 36.963 8.95 24.433-0.179 51.192-20.495 65.602l1.343 3.58c25.059-2.059 48.955 12.529 57.815 36.873 5.549 15.391 4.117 31.591-2.864 45.194z" fill="#97C5EA" p-id="8956"></path><path d="M465.904 505.633L476.464 517l-10.113 3.759z" fill="#FFFFFF" p-id="8957"></path><path d="M1003.874 552.709c2.953 8.145-1.163 17.184-9.308 20.138L228.914 851.542c-8.145 2.953-17.094-1.253-20.047-9.397l-5.549-15.215c-2.954-8.144 1.253-17.094 9.308-20.047 0.358-0.18 1.074-0.358 1.432-0.447 12.351-4.564 19.152-19.063 14.409-32.22-4.743-13.066-19.331-19.868-32.398-15.125-8.144 2.953-17.81-0.984-20.763-9.039l-10.65-29.177c-2.954-8.144 1.253-17.184 9.397-20.137 0.358-0.09 1.074-0.358 1.432-0.447 12.351-4.475 19.152-19.063 14.32-32.13-4.744-13.156-19.242-19.958-32.398-15.125-8.144 2.953-17.81-0.984-20.763-9.129l-9.666-26.491c-2.953-8.145 1.253-17.184 9.397-20.137 0.358-0.09 1.074-0.358 1.432-0.447 12.351-4.476 19.152-19.063 14.409-32.22-4.743-12.977-19.063-19.689-32.129-15.215-0.448 0.18-0.716 0.269-0.984 0.448-3.849 1.342-8.055 1.253-11.724-0.448a15.471 15.471 0 0 1-8.324-8.949l-10.65-29.176c-2.954-8.145 1.253-17.094 9.397-20.047 0.269-0.179 0.985-0.358 1.432-0.448 12.351-4.564 19.063-19.063 14.32-32.219-4.833-13.246-19.779-19.868-32.667-15.036-3.848 1.432-8.323 1.343-12.082-0.358-3.759-1.7-6.981-4.833-8.413-8.771l-6.086-16.736c-2.954-8.144 1.253-17.184 9.397-20.137l765.652-278.696c8.055-2.954 17.094 1.253 20.048 9.397l6.086 16.825c1.432 3.938 1.253 8.323-0.627 12.083-1.79 3.848-5.102 6.802-9.129 8.055-0.089 0.089-0.895 0.269-1.073 0.358-13.156 4.833-19.869 19.332-15.126 32.398 4.744 13.156 19.332 19.958 32.398 15.125 0.358-0.09 1.074-0.448 1.432-0.537a15.624 15.624 0 0 1 11.725 0.358c3.938 1.701 6.892 5.012 8.323 8.95l10.74 29.266c1.432 4.028 1.163 8.413-0.717 12.261-1.879 3.849-5.101 6.712-9.308 8.055-0.179 0-0.895 0.269-1.074 0.269-12.887 4.744-19.689 19.242-14.945 32.398 4.833 13.066 19.331 19.868 32.487 15.125l1.074-0.447c3.849-1.611 8.323-1.432 12.172 0.268 3.848 1.701 6.802 4.922 8.233 8.95l9.666 26.581a15.372 15.372 0 0 1-0.627 12.261c-1.879 3.848-5.19 6.712-9.308 8.055-0.09 0-0.716 0.269-0.895 0.269-13.067 4.743-19.869 19.332-15.126 32.398 4.744 13.067 19.332 19.869 32.488 15.125 0.269-0.179 1.074-0.448 1.432-0.626 3.759-1.343 7.966-1.253 11.725 0.447a15.472 15.472 0 0 1 8.323 8.95l10.65 29.266c1.432 3.938 1.163 8.413-0.627 12.172-1.88 3.848-5.28 6.712-9.218 8.055-0.18 0.089-0.985 0.269-1.164 0.358-12.977 4.744-19.779 19.242-14.946 32.398 4.744 13.066 19.332 19.868 32.398 15.125 0.358-0.179 1.074-0.537 1.432-0.627a15.624 15.624 0 0 1 11.725 0.358c3.849 1.79 6.892 5.012 8.323 8.95l5.549 15.213zM255.047 808.673l691.101-251.578c-8.682-3.67-16.379-9.397-22.375-17.005l-114.288 41.616c-8.145 2.954-17.094-1.163-20.048-9.308-2.953-8.144 1.253-17.094 9.397-20.137l113.215-41.169c-2.237-20.674 6.98-41.079 24.164-52.804l-1.163-3.042c-25.06 2.416-49.672-12.261-58.711-36.963-8.949-24.791 0.447-51.819 21.211-66.139l-0.09-0.358c-25.148 2.417-49.761-12.261-58.8-37.052-8.949-24.701 0.448-51.819 21.211-66.049l-1.073-3.043c-22.822 2.237-45.107-9.755-55.758-30.608l-118.405 43.138c-8.145 2.954-17.094-1.253-20.047-9.397-2.954-8.145 1.253-17.094 9.308-20.047l123.059-44.838c0.717-7.876 3.223-15.573 7.16-22.464l-158.053 57.458 11.008 30.25c2.954 8.055-1.253 17.094-9.308 20.047-1.79 0.626-3.58 0.984-5.369 0.984-6.444 0-12.44-4.027-14.768-10.381l-11.008-30.161-507.093 184.544c15.035 5.638 27.565 17.452 33.472 33.651 8.95 24.522-0.179 51.193-20.495 65.602l1.253 3.4c24.791-1.969 48.955 12.619 57.905 37.142 0.448 1.253 0.895 2.506 1.164 3.849 6.712 23.359-2.417 48.061-21.658 61.754l0.268 0.895c25.06-1.969 48.956 12.619 57.815 36.963 8.95 24.433-0.179 51.192-20.495 65.602l1.342 3.58c25.06-2.059 48.955 12.529 57.815 36.873 5.55 15.392 4.118 31.591-2.863 45.195z" fill="#024687" p-id="8958"></path><path d="M946.148 557.095L255.047 808.673c6.981-13.604 8.413-29.803 2.864-45.196-8.86-24.344-32.756-38.932-57.815-36.873l-1.342-3.58c20.316-14.409 29.445-41.169 20.495-65.602-8.86-24.344-32.756-38.932-57.815-36.963l-0.268-0.895c19.242-13.693 28.371-38.395 21.658-61.754l5.907-1.879c0.179 0.895 0.448 1.789 0.716 2.685 2.953 8.145 11.993 12.351 20.047 9.397l20.584-7.519 26.133 71.777c2.953 8.145 11.993 12.351 20.137 9.397 8.055-2.953 12.261-11.903 9.308-20.048l-26.134-71.866 20.584-7.429c7.25-2.595 11.366-10.113 10.113-17.451l15.573-5.639 30.608 83.948c2.953 8.055 11.903 12.262 20.047 9.309 8.144-2.954 12.351-11.903 9.397-20.048l-9.934-27.207a102.97 102.97 0 0 0 10.382-4.654l35.709 28.281c4.385 3.49 10.113 4.206 15.036 2.417 2.685-0.896 5.102-2.596 6.981-5.013 4.206-5.28 4.385-12.439 1.074-17.899l12.261-0.806c2.595 5.639 8.234 9.487 14.767 9.309 8.681-0.18 15.483-7.429 15.215-16.021l-0.179-7.07 32.309-11.813 6.265 6.802c4.386 4.833 11.098 6.175 16.826 4.117 1.88-0.717 3.67-1.79 5.28-3.223 5.639-5.101 6.623-13.424 2.686-19.689l13.066-4.743 0.806 2.148c2.953 8.144 11.902 12.351 20.047 9.396 8.145-2.953 12.351-11.992 9.397-20.137l16.378-5.817c2.953 8.055 11.993 12.262 20.137 9.308 8.056-2.953 12.262-11.903 9.309-20.047L603.73 456.32l59.784 37.768c4.206 2.685 9.308 3.132 13.782 1.521 1.521-0.626 3.043-1.432 4.476-2.506 5.19-4.207 7.159-11.277 4.832-17.631l17.273-6.265 12.798 35.083c2.954 8.145 11.903 12.261 20.048 9.308s12.351-11.903 9.308-20.047l-14.498-40.005c-2.954-8.145-11.993-12.351-20.138-9.397-0.806 0.269-1.521 0.626-2.237 1.074l-7.249-11.456c1.79 0 3.58-0.358 5.37-0.985 8.144-2.953 12.351-11.993 9.396-20.047l-14.588-40.095c-2.953-8.055-11.992-12.261-20.047-9.308-0.806 0.268-1.521 0.626-2.238 1.074l-7.428-11.724c1.79 0 3.58-0.358 5.37-0.984 8.144-2.954 12.351-11.993 9.396-20.137l-14.588-40.005c-2.953-8.144-11.992-12.261-20.048-9.308-0.805 0.269-1.521 0.626-2.237 1.074l-7.875-13.156c1.789 0 3.579-0.358 5.369-0.984 8.055-2.953 12.262-11.993 9.308-20.047l-11.008-30.25 158.053-57.458c-3.938 6.891-6.443 14.588-7.16 22.464l-123.059 44.838c-8.055 2.953-12.262 11.903-9.308 20.047 2.953 8.144 11.902 12.351 20.047 9.397l118.405-43.138c10.65 20.853 32.936 32.846 55.758 30.608l1.073 3.043c-20.763 14.23-30.16 41.348-21.211 66.049 9.039 24.791 33.651 39.469 58.8 37.052l0.09 0.358c-20.764 14.32-30.16 41.348-21.211 66.139 9.039 24.702 33.651 39.379 58.711 36.963l1.163 3.042c-17.184 11.725-26.401 32.13-24.164 52.804l-113.215 41.169c-8.145 3.043-12.351 11.993-9.397 20.137 2.954 8.145 11.903 12.262 20.048 9.308l114.288-41.616c5.998 7.606 13.695 13.334 22.376 17.004z" fill="#FFFFFF" p-id="8959"></path><path d="M746.031 493.551c3.043 8.145-1.163 17.094-9.308 20.047s-17.094-1.163-20.048-9.308l-12.798-35.083-1.79-4.922c-2.685-7.339 0.537-15.394 7.07-19.063a10.26 10.26 0 0 1 2.237-1.074c8.145-2.953 17.184 1.253 20.138 9.397l14.499 40.006zM716.676 412.735c2.954 8.055-1.253 17.094-9.396 20.047-1.79 0.626-3.58 0.985-5.37 0.985-6.354 0-12.351-4.027-14.678-10.382l-14.588-40.005c-2.686-7.339 0.537-15.394 7.159-18.974a10.336 10.336 0 0 1 2.238-1.074c8.055-2.954 17.094 1.253 20.047 9.308l14.588 40.095z" fill="#024687" p-id="8960"></path><path d="M701.909 433.767l7.249 11.456c-6.533 3.669-9.755 11.724-7.07 19.063l1.79 4.922-17.273 6.265-31.413-86.365c-2.953-8.144-11.903-12.261-20.048-9.308s-12.351 11.903-9.397 20.047l15.752 43.228-59.337-37.41c-1.343-0.895-2.864-1.432-4.386-1.879a15.356 15.356 0 0 0-0.984-0.269c-0.357 0-0.626-0.089-0.895-0.089a15.792 15.792 0 0 0-7.876 0.626c-8.055 2.954-12.261 11.993-9.308 20.137l31.503 86.634-16.378 5.817-31.414-86.186c-2.953-8.055-11.902-12.261-20.047-9.308-8.145 2.953-12.351 11.903-9.397 20.047l30.608 84.038-13.066 4.743c-0.448-0.805-1.074-1.7-1.79-2.416l-68.019-73.835c-4.385-4.833-11.277-6.265-17.362-3.938-6.086 2.417-9.935 8.413-9.755 14.946l2.417 96.836c0.089 2.148 0.537 4.207 1.342 5.996l-12.261 0.806c-0.984-1.432-2.148-2.863-3.669-4.027l-30.25-24.074c3.759-5.549 5.638-11.009 6.444-15.752 2.148-13.246-3.401-26.67-14.499-34.994-16.647-12.53-49.582-1.164-67.661 6.802-0.179 0-0.268 0.089-0.358 0.179-0.269 0.089-0.537 0.089-0.805 0.179-8.145 2.954-12.351 11.993-9.397 20.137l0.895 2.417-15.573 5.639c-0.179-0.896-0.447-1.79-0.716-2.686-2.954-8.055-11.993-12.261-20.047-9.308l-70.614 25.686c-7.249 2.596-11.366 10.024-10.113 17.363l-5.907 1.879c-0.269-1.343-0.716-2.596-1.164-3.849-8.95-24.522-33.114-39.11-57.905-37.142l-1.253-3.4c20.316-14.409 29.445-41.08 20.495-65.602-5.907-16.199-18.437-28.013-33.472-33.651l507.094-184.544 11.008 30.161c2.327 6.354 8.323 10.381 14.768 10.381l7.875 13.156c-6.622 3.58-9.845 11.635-7.159 18.974l14.588 40.005c2.327 6.354 8.323 10.382 14.678 10.382l7.428 11.724c-6.622 3.58-9.845 11.635-7.159 18.974l14.588 40.005c2.325 6.355 8.321 10.382 14.675 10.382z" fill="#FFFFFF" p-id="8961"></path><path d="M687.142 331.561c2.954 8.145-1.253 17.184-9.396 20.137-1.79 0.626-3.58 0.984-5.37 0.984-6.354 0-12.351-4.027-14.678-10.382l-14.588-40.005c-2.686-7.339 0.537-15.394 7.159-18.974a10.397 10.397 0 0 1 2.237-1.074c8.056-2.954 17.095 1.164 20.048 9.308l14.588 40.006zM686.604 475.473c2.327 6.354 0.358 13.425-4.832 17.631-1.433 1.074-2.954 1.879-4.476 2.506-4.475 1.611-9.576 1.164-13.782-1.521L603.73 456.32l15.931 43.764c2.953 8.145-1.253 17.094-9.309 20.047-8.144 2.954-17.184-1.253-20.137-9.308l-31.503-86.634c-2.953-8.144 1.253-17.183 9.308-20.137a15.792 15.792 0 0 1 7.876-0.626c0.269 0 0.537 0.089 0.895 0.089 0.358 0.09 0.716 0.179 0.984 0.269 1.521 0.448 3.043 0.984 4.386 1.879l59.337 37.41-15.752-43.228c-2.953-8.144 1.253-17.094 9.397-20.047s17.095 1.164 20.048 9.308l31.413 86.367zM573.838 516.642c2.953 8.145-1.253 17.184-9.397 20.137-8.145 2.954-17.094-1.253-20.047-9.396l-0.806-2.148-30.608-84.038c-2.954-8.145 1.253-17.094 9.397-20.047 8.145-2.954 17.094 1.253 20.047 9.308l31.414 86.184zM530.521 529.977c3.938 6.266 2.953 14.589-2.686 19.689a17.102 17.102 0 0 1-5.28 3.223c-5.728 2.058-12.44 0.716-16.826-4.117l-6.265-6.802-32.309 11.813 0.179 7.07c0.268 8.592-6.534 15.841-15.215 16.021-6.533 0.179-12.172-3.67-14.767-9.309-0.806-1.789-1.253-3.848-1.342-5.996l-2.417-96.836c-0.179-6.533 3.669-12.529 9.755-14.946 6.085-2.327 12.977-0.895 17.362 3.938l68.019 73.835c0.718 0.716 1.344 1.612 1.792 2.417zM476.464 517l-10.561-11.367 0.447 15.125L476.464 517zM425.093 568.371c3.312 5.46 3.132 12.619-1.074 17.899-1.879 2.417-4.296 4.117-6.981 5.013-4.922 1.789-10.65 1.073-15.036-2.417l-35.709-28.281a102.747 102.747 0 0 1-10.382 4.654l9.934 27.207c2.954 8.145-1.253 17.094-9.397 20.048-8.145 2.953-17.094-1.254-20.047-9.309l-30.608-83.948-0.895-2.417c-2.953-8.144 1.253-17.183 9.397-20.137 0.269-0.089 0.537-0.089 0.805-0.179 0.09-0.09 0.179-0.179 0.358-0.179 18.079-7.965 51.014-19.332 67.661-6.802 11.098 8.323 16.646 21.748 14.499 34.994-0.806 4.743-2.685 10.203-6.444 15.752l30.25 24.074c1.521 1.165 2.684 2.596 3.669 4.028z m-58.442-48.865c0.358-1.88-0.806-3.49-1.611-4.296-4.296-0.627-14.588 1.61-25.417 5.37l5.638 15.394c14.677-5.997 20.763-12.441 21.39-16.468z" fill="#024687" p-id="8962"></path><path d="M365.04 515.21c0.805 0.806 1.969 2.416 1.611 4.296-0.626 4.027-6.712 10.471-21.39 16.468l-5.638-15.394c10.829-3.76 21.121-5.997 25.417-5.37z" fill="#FFFFFF" p-id="8963"></path><path d="M290.22 524.876c1.253 7.338-2.864 14.856-10.113 17.451l-20.584 7.429 26.134 71.866c2.953 8.145-1.253 17.095-9.308 20.048-8.144 2.953-17.184-1.253-20.137-9.397l-26.133-71.777-20.584 7.519c-8.055 2.953-17.094-1.253-20.047-9.397-0.269-0.896-0.537-1.79-0.716-2.685-1.253-7.339 2.864-14.768 10.113-17.363l70.614-25.686c8.055-2.954 17.094 1.253 20.047 9.308 0.266 0.894 0.535 1.788 0.714 2.684z" fill="#024687" p-id="8964"></path></svg>